Coordinates
version=1
nRows=9
nColumns=24
inDegrees=yes

Units are S.I. units (second, meters, Newtons, ...)
Angles are in degrees.

endheader
time	pelvis_tilt	pelvis_list	pelvis_rotation	pelvis_tx	pelvis_ty	pelvis_tz	hip_flexion_r	hip_adduction_r	hip_rotation_r	knee_angle_r	ankle_angle_r	subtalar_angle_r	mtp_angle_r	hip_flexion_l	hip_adduction_l	hip_rotation_l	knee_angle_l	ankle_angle_l	subtalar_angle_l	mtp_angle_l	lumbar_extension	lumbar_bending	lumbar_rotation
      2.41500000	     24.76535933	     -3.13092938	      0.03169913	     -0.18446700	      1.04129236	     -0.02672329	     -5.62826919	     -1.98701137	    -11.51288304	    -25.00785932	      7.00103326	     -7.63831020	     38.22327761	    -28.47655387	     -1.74128430	     -8.22331387	     -8.91547427	     15.01198365	      2.22500414	     -1.02724007	    -42.05715987	     -1.47190916	     -0.43269167
      2.42000000	     24.74963003	     -3.07766000	      0.03036225	     -0.17987698	      1.04080194	     -0.02642505	     -5.66971157	     -1.90434914	    -11.47000839	    -23.49140935	      6.92721650	     -7.30591851	     38.09520167	    -28.85107868	     -1.68896990	     -8.18942334	     -8.72511600	     15.14098317	      2.24509911	     -0.96687953	    -42.06339165	     -1.50693823	     -0.44055651
      2.42500000	     24.76213138	     -2.98587685	      0.03271976	     -0.17530179	      1.04030972	     -0.02612129	     -5.75805851	     -1.86338399	    -11.43994556	    -21.96345458	      6.83922542	     -6.93630027	     37.80140444	    -29.25035636	     -1.60409195	     -8.14386369	     -8.54210016	     15.25604020	      2.32570711	     -0.83076919	    -42.10144634	     -1.57308556	     -0.47683462
      2.43000000	     24.73677091	     -2.92115595	      0.01749545	     -0.17066909	      1.03974043	     -0.02578222	     -5.81925171	     -1.79053829	    -11.37556466	    -20.42656951	      6.75859663	     -6.58005186	     37.65901882	    -29.62565751	     -1.53336862	     -8.10233749	     -8.33596427	     15.35558079	      2.29278080	     -0.75563637	    -42.09413398	     -1.62166902	     -0.47671416
      2.43500000	     24.72166931	     -2.84536946	      0.00768827	     -0.16599885	      1.03915307	     -0.02544675	     -5.90710940	     -1.73337240	    -11.34478667	    -18.88655466	      6.60921392	     -6.20298936	     37.51785462	    -30.02028490	     -1.45523215	     -8.06293725	     -8.11711438	     15.47257804	      2.29793019	     -0.67350565	    -42.09375473	     -1.67495309	     -0.49949155
      2.44000000	     24.69713411	     -2.75473471	      0.00282500	     -0.16130759	      1.03854000	     -0.02510025	     -5.99953591	     -1.69043689	    -11.32540037	    -17.34543114	      6.43069833	     -5.83188435	     37.36739129	    -30.40257409	     -1.36806676	     -8.00969752	     -7.90347735	     15.57828651	      2.30887218	     -0.58412185	    -42.08196678	     -1.73640310	     -0.52788152
      2.44500000	     24.70145972	     -2.66366096	      0.00097410	     -0.15658648	      1.03791230	     -0.02474878	     -6.13714174	     -1.64874607	    -11.32634108	    -15.81045828	      6.22478685	     -5.46727170	     37.21076820	    -30.82472091	     -1.28222401	     -7.96306785	     -7.67730768	     15.67931665	      2.32719805	     -0.48829127	    -42.09829435	     -1.79487352	     -0.55772848
      2.45000000	     24.70447128	     -2.55500427	      0.00728082	     -0.15183950	      1.03727110	     -0.02438823	     -6.28376134	     -1.62548012	    -11.34934931	    -14.29524496	      6.00367386	     -5.10805682	     37.03750561	    -31.24065527	     -1.18715312	     -7.90043160	     -7.46122433	     15.76813184	      2.35563237	     -0.37933990	    -42.11094902	     -1.86262095	     -0.59651373
      2.45500000	     24.69154032	     -2.43734582	      0.01214225	     -0.14705472	      1.03658295	     -0.02402051	     -6.41300392	     -1.61462405	    -11.39512322	    -12.82044544	      5.75690521	     -4.76025494	     36.84413637	    -31.64453151	     -1.08410278	     -7.83382317	     -7.23882709	     15.85743220	      2.38297853	     -0.25438584	    -42.10345508	     -1.93594275	     -0.64899911
